<svg xmlns="http://www.w3.org/2000/svg" version="1.1" xmlns:xlink="http://www.w3.org/1999/xlink" xmlns:svgjs="http://svgjs.dev/svgjs" width="8192" height="4096" preserveAspectRatio="none" viewBox="0 0 8192 4096"><g mask="url(&quot;#SvgjsMask1062&quot;)" fill="none"><rect width="8192" height="4096" x="0" y="0" fill="rgba(49, 75, 96, 1)"></rect><path d="M8465.06666666667 4096L0 4096 L0 1941.58Q-56.59 1202.33, 682.6666666666666 1145.74Q1367.91 1148.32, 1365.3333333333333 1833.56Q1557.96 1616.59, 1774.9333333333334 1809.22Q1753.97 1378.65, 2184.5333333333333 1357.69Q2296.19 1059.75, 2594.133333333333 1171.41Q2988.23 882.84, 3276.7999999999997 1276.94Q3593.46 1184.01, 3686.3999999999996 1500.67Q4222.68 1354.29, 4369.066666666667 1890.57Q4617.14 1729.04, 4778.666666666667 1977.11Q4865.16 1654, 5188.266666666667 1740.49Q5356.06 1498.68, 5597.866666666668 1666.47Q5823.53 1209.46, 6280.533333333335 1435.12Q6579.11 1051.03, 6963.200000000002 1349.61Q7145.37 1122.18, 7372.800000000002 1304.35Q7789.98 1038.86, 8055.466666666669 1456.04Q8419.83 1410.8, 8465.06666666667 1775.17z" fill="rgba(49, 75, 96, 1)"></path><path d="M8192.000000000002 4096L0 4096 L0 2751.83Q216.62 2285.78, 682.6666666666666 2502.4Q611.02 2021.15, 1092.2666666666667 1949.51Q1414.56 1589.14, 1774.9333333333334 1911.44Q2409.77 1863.61, 2457.6 2498.45Q2542.44 1900.63, 3140.2666666666664 1985.47Q3285.13 1720.73, 3549.8666666666663 1865.59Q4081.18 1714.24, 4232.533333333333 2245.55Q4539.99 1870.34, 4915.2 2177.79Q5289.45 2142.44, 5324.8 2516.69Q5335.75 1844.98, 6007.466666666667 1855.93Q6670.26 2109.12, 6417.0666666666675 2771.91Q6348.08 2020.25, 7099.7333333333345 1951.26Q7267.35 1709.27, 7509.333333333335 1876.89Q7905.73 1590.62, 8192.000000000002 1987.01z" fill="rgba(82, 109, 130, 1)"></path><path d="M8465.066666666668 4096L0 4096 L0 2926.51Q619.41 2863.26, 682.6666666666666 3482.67Q911.54 3301.94, 1092.2666666666667 3530.81Q1323.95 3079.83, 1774.9333333333334 3311.52Q1773.4 2900.39, 2184.5333333333333 2898.86Q2258.21 2562.94, 2594.133333333333 2636.62Q2822.17 2455.06, 3003.733333333333 2683.1Q3296.37 2566.14, 3413.333333333333 2858.77Q3758.89 2794.72, 3822.933333333333 3140.28Q4230.15 3137.9, 4232.533333333333 3545.12Q4277.53 2907.45, 4915.2 2952.45Q5267.13 2621.72, 5597.866666666667 2973.65Q5846.89 2540, 6280.533333333334 2789.02Q6787.57 2613.39, 6963.200000000001 3120.43Q7293.7 3041.33, 7372.800000000001 3371.83Q7540.35 2856.71, 8055.466666666668 3024.26Q8169.48 2728.68, 8465.066666666668 2842.69z" fill="rgba(157, 178, 191, 1)"></path><path d="M8192.000000000002 4096L0 4096 L0 3419.94Q356.65 3366.99, 409.6 3723.64Q588.48 3219.86, 1092.2666666666667 3398.74Q1463.46 3087.27, 1774.9333333333334 3458.47Q2342.7 3343.57, 2457.6 3911.34Q2629.59 3673.73, 2867.2 3845.72Q3050.33 3619.24, 3276.7999999999997 3802.37Q3671.51 3787.48, 3686.3999999999996 4182.19Q4044.16 3857.29, 4369.066666666667 4215.05Q4485.76 3922.14, 4778.666666666667 4038.83Q4776.72 3627.28, 5188.266666666667 3625.34Q5254.9 3282.38, 5597.866666666668 3349.01Q5984.83 3053.3, 6280.533333333335 3440.26Q6658.72 3135.78, 6963.200000000002 3513.96Q7227.42 3368.57, 7372.800000000002 3632.79Q7617.51 3467.89, 7782.400000000002 3712.6Q8029.32 3549.92, 8192.000000000002 3796.84z" fill="rgba(221, 230, 237, 1)"></path></g><defs><mask id="SvgjsMask1062"><rect width="8192" height="4096" fill="#ffffff"></rect></mask></defs></svg>