<svg xmlns="http://www.w3.org/2000/svg" version="1.1" xmlns:xlink="http://www.w3.org/1999/xlink" xmlns:svgjs="http://svgjs.dev/svgjs" width="8192" height="4096" preserveAspectRatio="none" viewBox="0 0 8192 4096"><g mask="url(&quot;#SvgjsMask1013&quot;)" fill="none"><rect width="8192" height="4096" x="0" y="0" fill="rgba(221, 230, 237, 1)"></rect><path d="M0,2291.105C424.035,2260.853,778.51,1997.496,1130.836,1759.615C1475.677,1526.787,1908.651,1324.136,2024.196,924.419C2138.673,528.399,1824.423,150.259,1710.58,-245.944C1614.743,-579.481,1606.214,-935.185,1408.013,-1220.05C1196.342,-1524.275,919.327,-1817.503,558.438,-1901.866C202.738,-1985.016,-144.751,-1787.201,-488.408,-1663.364C-811.614,-1546.897,-1136.847,-1437.48,-1386.172,-1201.125C-1652.524,-948.629,-1910.771,-645.184,-1947.65,-280.03C-1984.127,81.141,-1691.197,376.055,-1580.372,721.732C-1450.099,1128.069,-1542.297,1628.052,-1239.516,1928.725C-927.754,2238.317,-438.252,2322.371,0,2291.105" fill="#adc3d4"></path><path d="M8192 6627.993C8700.474 6754.532 9289.43 6772.6720000000005 9725.14 6481.612999999999 10159.613 6191.38 10267.426 5616.138 10443.268 5124.12 10605.23 4670.9400000000005 10743.78 4214.245 10706.966 3734.4030000000002 10668.380000000001 3231.459 10554.387999999999 2716.37 10228.975 2330.951 9901.727 1943.359 9425.911 1650.6889999999999 8919.726 1617.5929999999998 8442.672 1586.402 8078.491 2013.181 7623.719 2160.612 7186.923 2302.215 6619.968 2126.542 6308.648999999999 2464.067 5997.868 2801.009 6209.161 3348.822 6114.153 3797.251 6009.916 4289.244 5507.4349999999995 4769.204 5724.109 5223.048 5941.709 5678.832 6642.722 5573.876 7081.643 5823.749 7487.012 6054.522 7739.351 6515.346 8192 6627.993" fill="#ffffff"></path></g><defs><mask id="SvgjsMask1013"><rect width="8192" height="4096" fill="#ffffff"></rect></mask></defs></svg>